<?xml version="1.0" encoding="utf-8" ?>
<svg baseProfile="full" height="512" version="1.1" width="512" xmlns="http://www.w3.org/2000/svg" xmlns:ev="http://www.w3.org/2001/xml-events" xmlns:xlink="http://www.w3.org/1999/xlink"><defs /><polygon fill="black" points="346,399" /><polygon fill="black" points="271,398" /><polygon fill="black" points="132,398" /><polygon fill="black" points="405,395" /><polygon fill="black" points="129,386 129,388" /><polygon fill="black" points="254,380" /><polygon fill="black" points="312,378" /><polygon fill="black" points="383,360" /><polygon fill="black" points="264,350 264,351" /><polygon fill="black" points="272,345" /><polygon fill="black" points="269,339 269,342 271,342 272,343 273,343 274,344 274,346 275,347 275,387 274,388 274,390 272,392 270,392 269,393 268,393 268,395 269,396 308,396 308,393 309,392 309,385 310,384 310,380 307,380 307,381 306,382 306,383 301,388 300,388 299,389 298,389 297,390 287,390 286,389 286,344 288,342 291,342 292,341 292,339" /><polygon fill="black" points="220,339 220,341 221,342 223,342 226,345 226,349 227,350 227,351 226,352 226,381 227,382 227,385 226,386 226,390 224,392 222,392 221,393 220,393 220,396 246,396 246,393 244,393 243,392 240,392 238,390 238,388 237,387 237,371 238,370 247,370 248,371 249,371 252,374 252,377 253,378 255,378 255,359 254,359 251,362 251,363 250,364 249,364 248,365 239,365 238,364 238,362 237,361 237,354 238,353 237,352 238,351 238,345 239,344 251,344 252,345 253,345 254,346 255,346 257,348 257,349 258,350 258,353 262,353 262,348 261,347 261,339" /><polygon fill="black" points="125,339 125,342 128,342 131,345 131,389 128,392 126,392 125,393 125,396 149,396 149,393 148,392 145,392 142,389 142,345 145,342 146,342 147,341 147,339" /><polygon fill="black" points="400,338 399,339 379,339 379,342 381,342 382,343 383,343 385,345 385,389 382,392 380,392 379,393 379,396 403,396 403,393 402,393 401,392 399,392 397,390 397,389 396,388 396,372 397,371 402,371 404,373 404,375 405,376 405,377 406,378 406,379 407,380 407,381 408,382 408,383 410,385 410,386 411,387 411,388 414,391 414,392 415,392 418,395 420,395 421,396 433,396 433,392 431,392 430,391 429,391 428,390 427,390 424,387 424,386 422,384 422,383 420,381 420,380 419,379 419,378 418,377 418,376 417,375 417,374 415,372 414,372 413,371 413,370 414,369 416,369 418,367 419,367 424,362 424,361 425,360 425,357 426,356 426,352 425,351 425,348 424,347 424,346 420,342 419,342 418,341 417,341 416,340 415,340 414,339 407,339 406,338" /><polygon fill="black" points="337,338 336,339 333,339 332,340 331,340 330,341 329,341 328,342 327,342 326,343 325,343 318,350 318,351 317,352 317,353 316,354 316,355 315,356 315,358 314,359 314,364 313,365 313,371 314,372 314,377 315,378 315,380 316,381 316,382 317,383 317,384 319,386 319,387 323,391 324,391 326,393 327,393 328,394 329,394 330,395 332,395 333,396 336,396 337,397 347,397 348,396 352,396 353,395 355,395 356,394 357,394 358,393 359,393 362,390 363,390 367,386 367,385 369,383 369,382 371,380 371,378 372,377 372,375 373,374 373,359 372,358 372,356 371,355 371,354 370,353 370,352 369,351 369,350 367,348 367,347 364,344 363,344 361,342 360,342 359,341 358,341 357,340 356,340 355,339 353,339 352,338" /><polygon fill="black" points="72,338 71,339 71,341 72,342 75,342 77,344 77,390 75,392 73,392 72,393 71,393 71,396 102,396 103,395 108,395 109,394 110,394 111,393 112,393 117,388 117,387 118,386 118,385 119,384 119,375 118,374 118,373 113,368 112,368 111,367 109,367 108,366 106,366 105,365 106,364 107,364 108,363 109,363 111,361 112,361 113,360 113,359 115,357 115,348 114,347 114,346 109,341 108,341 107,340 106,340 105,339 101,339 100,338 88,338 87,339 75,339 74,338" /><polygon fill="black" points="184,337 183,338 177,338 176,339 174,339 173,340 172,340 171,341 170,341 169,342 168,342 166,344 165,344 160,349 160,350 158,352 158,353 157,354 157,355 156,356 156,358 155,359 155,363 154,364 154,371 155,372 155,377 156,378 156,380 157,381 157,382 158,383 158,384 160,386 160,387 164,391 165,391 167,393 168,393 169,394 170,394 171,395 172,395 173,396 176,396 177,397 189,397 190,396 193,396 194,395 196,395 197,394 198,394 200,392 201,392 203,390 204,390 208,386 208,385 210,383 210,382 211,381 211,380 212,379 212,378 213,377 213,374 214,373 214,360 213,359 213,356 212,355 212,354 211,353 211,352 210,351 210,350 207,347 207,346 206,345 205,345 202,342 201,342 200,341 199,341 198,340 197,340 196,339 194,339 193,338 187,338 186,337" /><polygon fill="black" points="97,336" /><polygon fill="black" points="247,85 246,86 238,86 237,87 232,87 231,88 228,88 227,89 224,89 223,90 221,90 220,91 218,91 217,92 215,92 214,93 213,93 212,94 211,94 210,95 208,95 207,96 206,96 205,97 204,97 203,98 202,98 200,100 199,100 198,101 197,101 195,103 194,103 192,105 191,105 188,108 187,108 181,114 180,114 174,120 174,121 169,126 169,127 166,130 166,131 163,134 163,135 161,137 161,138 160,139 160,140 158,142 158,143 157,144 157,145 156,146 156,147 155,148 155,150 154,151 154,152 153,153 153,154 152,155 152,157 151,158 151,159 150,160 150,162 149,163 149,165 148,166 148,169 147,170 147,173 146,174 146,179 145,180 145,185 144,186 144,212 145,213 145,219 146,220 146,224 147,225 147,228 148,229 148,232 149,233 149,235 150,236 150,238 151,239 151,241 152,242 152,243 153,244 153,246 154,247 154,248 155,249 155,250 156,251 156,252 157,253 157,254 158,255 158,256 160,258 160,259 162,261 162,262 163,263 163,264 166,267 166,268 169,271 169,272 182,285 183,285 187,289 188,289 190,291 191,291 193,293 194,293 196,295 197,295 199,297 200,297 201,298 202,298 203,299 204,299 205,300 206,300 207,301 208,301 209,302 210,302 211,303 212,303 213,304 215,304 216,305 218,305 219,306 221,306 222,307 224,307 225,308 227,308 228,309 232,309 233,310 237,310 238,311 244,311 245,312 267,312 268,311 274,311 275,310 279,310 280,309 283,309 284,308 287,308 288,307 290,307 291,306 293,306 294,305 296,305 297,304 298,304 299,303 301,303 302,302 303,302 304,301 305,301 306,300 307,300 308,299 309,299 310,298 311,298 313,296 314,296 315,295 316,295 318,293 319,293 321,291 322,291 326,287 327,287 333,281 334,281 335,280 335,279 336,278 337,278 337,277 344,270 344,269 347,266 347,265 349,263 349,262 351,260 351,259 353,257 353,256 354,255 354,254 355,253 355,252 356,251 356,250 357,249 357,248 358,247 358,246 359,245 359,244 360,243 360,242 361,241 361,239 362,238 362,236 363,235 363,233 364,232 364,230 365,229 365,226 366,225 366,221 367,220 367,215 368,214 368,207 369,206 369,193 368,192 368,184 367,183 367,178 366,177 366,173 365,172 365,170 364,169 364,166 363,165 363,163 362,162 362,160 361,159 361,158 360,157 360,155 359,154 359,153 358,152 358,151 357,150 357,149 356,148 356,147 355,146 355,145 354,144 354,143 353,142 353,141 351,139 351,138 349,136 349,135 348,134 348,133 345,130 345,129 341,125 341,124 328,111 327,111 323,107 322,107 320,105 319,105 317,103 316,103 314,101 313,101 312,100 311,100 309,98 308,98 307,97 306,97 305,96 303,96 302,95 301,95 300,94 299,94 298,93 296,93 295,92 294,92 293,91 291,91 290,90 287,90 286,89 284,89 283,88 279,88 278,87 274,87 273,86 264,86 263,85" /></svg>